<svg
  width="32"
  height="28"
  viewBox="0 0 32 28"
  fill="none"
  xmlns="http://www.w3.org/2000/svg"
>
  <path
    d="M18.904 14.416C20.7813 15.5253 21.72 17.2 21.72 19.44C21.72 21.424 21.0373 23.0133 19.672 24.208C18.3067 25.4026 16.4827 26 14.2 26H4.76001V3.59998H13.592C15.832 3.59998 17.624 4.17598 18.968 5.32798C20.312 6.45864 20.984 8.00531 20.984 9.96798C20.984 11.8453 20.2907 13.328 18.904 14.416ZM13.432 8.71998H10.488V12.24H13.432C13.944 12.24 14.3707 12.0906 14.712 11.792C15.0747 11.472 15.256 11.0346 15.256 10.48C15.256 9.94664 15.0853 9.51998 14.744 9.19998C14.4027 8.87998 13.9653 8.71998 13.432 8.71998ZM14.04 20.88C14.616 20.88 15.0853 20.7093 15.448 20.368C15.8107 20.0053 15.992 19.5466 15.992 18.992C15.992 18.416 15.8107 17.9573 15.448 17.616C15.0853 17.2746 14.616 17.104 14.04 17.104H10.488V20.88H14.04Z"
    fill="#061237"
  />
  <circle cx="27" cy="23" r="4" fill="#00A3FF" />
</svg>
