<svg
  width="16"
  height="16"
  viewBox="0 0 16 16"
  fill="none"
  xmlns="http://www.w3.org/2000/svg"
>
  <path
    d="M13.8 2.2C13.3297 1.73224 12.6934 1.46967 12.03 1.46967C11.3667 1.46967 10.7304 1.73224 10.26 2.2L3.36004 9.11L1.60004 12.73C1.50958 12.9207 1.46845 13.131 1.48042 13.3416C1.4924 13.5523 1.5571 13.7566 1.66858 13.9358C1.78007 14.115 1.93476 14.2633 2.11848 14.3671C2.30219 14.4709 2.50904 14.5269 2.72004 14.53C2.91098 14.5299 3.09928 14.4854 3.27004 14.4L6.89004 12.64L12.89 6.64L13.72 5.82L13.78 5.76C14.2541 5.29022 14.5225 4.65155 14.5262 3.98414C14.53 3.31672 14.2688 2.67508 13.8 2.2V2.2ZM12.91 3.09C13.0264 3.20612 13.1188 3.34406 13.1818 3.49592C13.2448 3.64778 13.2773 3.81058 13.2773 3.975C13.2773 4.13942 13.2448 4.30222 13.1818 4.45409C13.1188 4.60595 13.0264 4.74389 12.91 4.86L11.14 3.09C11.3673 2.85903 11.676 2.72622 12 2.72C12.1691 2.71524 12.3373 2.74567 12.4939 2.80936C12.6506 2.87306 12.7923 2.96863 12.91 3.09ZM2.73004 13.27L4.29004 10L6.00004 11.71L2.73004 13.27ZM6.89004 10.87L5.13004 9.11L10.26 4L12 5.74L6.89004 10.87Z"
  />
</svg>
