<svg width="24" height="24" viewBox="0 0 24 24" fill="none" xmlns="http://www.w3.org/2000/svg">
<path d="M18.001 4H16.001V6.557C14.9197 5.70849 13.6126 5.19708 12.2426 5.08653C10.8726 4.97598 9.50038 5.27119 8.29705 5.93534C7.09372 6.5995 6.11254 7.60321 5.47587 8.8213C4.8392 10.0394 4.57521 11.418 4.71683 12.7851C4.85844 14.1522 5.39939 15.4474 6.27222 16.5091C7.14505 17.5709 8.31113 18.3521 9.62505 18.7556C10.939 19.159 12.3426 19.1666 13.6608 18.7776C14.979 18.3886 16.1536 17.6201 17.038 16.568L15.418 15.384C14.776 16.1068 13.9383 16.6279 13.0062 16.8844C12.0741 17.1409 11.0877 17.1217 10.1663 16.8291C9.24494 16.5364 8.42814 15.983 7.81482 15.2358C7.2015 14.4885 6.81795 13.5795 6.71061 12.6188C6.60327 11.658 6.77674 10.6868 7.21002 9.8226C7.6433 8.95841 8.31781 8.23837 9.15188 7.74963C9.98595 7.2609 10.9438 7.02443 11.9095 7.06887C12.8752 7.1133 13.8073 7.43673 14.593 8H12.003V10H18.003V4H18.001Z" fill="black"/>
</svg>
