<svg width="24" height="24" viewBox="0 0 24 24" fill="none" xmlns="http://www.w3.org/2000/svg">
<path d="M6 4H8V6.557C9.08127 5.70849 10.3884 5.19708 11.7584 5.08653C13.1284 4.97598 14.5006 5.27119 15.7039 5.93534C16.9073 6.5995 17.8884 7.60321 18.5251 8.8213C19.1618 10.0394 19.4258 11.418 19.2842 12.7851C19.1425 14.1522 18.6016 15.4474 17.7288 16.5091C16.8559 17.5709 15.6899 18.3521 14.3759 18.7556C13.062 19.159 11.6584 19.1666 10.3402 18.7776C9.02194 18.3886 7.84739 17.6201 6.963 16.568L8.583 15.384C9.22498 16.1068 10.0627 16.6279 10.9948 16.8844C11.9269 17.1409 12.9133 17.1217 13.8347 16.8291C14.756 16.5364 15.5728 15.983 16.1862 15.2358C16.7995 14.4885 17.183 13.5795 17.2904 12.6188C17.3977 11.658 17.2242 10.6868 16.791 9.8226C16.3577 8.95841 15.6832 8.23837 14.8491 7.74963C14.015 7.2609 13.0572 7.02443 12.0915 7.06887C11.1258 7.1133 10.1937 7.43673 9.408 8H12V10H6V4Z" fill="black"/>
</svg>
